<?xml version="1.0" encoding="UTF-8"?>
<svg id="Layer_1" data-name="Layer 1" xmlns="http://www.w3.org/2000/svg" viewBox="0 0 2126.6 1000">
  <defs>
    <style>
      .cls-1 {
        fill: #595959;
      }

      .cls-2 {
        fill: #d91c27;
      }

      .cls-3 {
        fill: #313a93;
      }

      .cls-4 {
        fill: #f2cf11;
      }

      .cls-5 {
        fill: #d28132;
      }

      .cls-6 {
        fill: #76a7d4;
      }

      .cls-7 {
        fill: #28489e;
      }

      .cls-8 {
        fill: #18a449;
      }
    </style>
  </defs>
  <g>
    <path class="cls-2" d="M501.66,284.8c-2.64,8.77-12.34,14.15-21.55,11.95s-25.26-4.63-35.67-5.4l-24.5-1.28c-13.76-.72-27.54.4-40.86,3.32l-22.94,5.03c-10.04,2.37-25.26,7.19-33.83,10.72-8.57,3.53-19.3-.33-23.85-8.56l-13.66-24.72c-4.55-8.24-1.27-17.86,7.3-21.39,8.57-3.53,23.79-8.34,33.84-10.7l41.19-6.98c16.05-2.72,32.38-4.04,48.77-3.95l46.07.27c10.41.78,26.46,3.22,35.67,5.42,9.21,2.2,14.59,11.18,11.95,19.96l-7.92,26.33Z"/>
    <path class="cls-7" d="M617.79,432.15c-9.38,3.27-19.2-.2-21.82-7.71s-8.57-20.85-13.22-29.63l-5.97-13.62c-6.35-14.48-15.81-27.39-27.72-37.79l-11.7-10.21c-6.99-7.07-17.9-16.77-24.26-21.56-6.35-4.79-6.66-15.2-.68-23.14l13.08-17.35c5.98-7.94,16.07-10.51,22.43-5.72s17.27,14.49,24.25,21.56l10.35,9.19c18.94,16.81,34.36,37.19,45.39,59.99l9.48,19.59c4.64,8.79,10.58,22.12,13.2,29.64,2.62,7.51-2.91,16.34-12.3,19.61l-20.52,7.16Z"/>
    <path class="cls-4" d="M659.02,552.66c-1.57,6.28-8.86,9.93-16.2,8.1l-19-4.74c-7.34-1.83-12.07-8.47-10.5-14.75,1.57-6.28,3.65-17.57,4.62-25.07l.6-34.3c-.71-7.53-2.4-18.88-3.74-25.22s3.61-12.81,11.01-14.38l19.16-4.07c7.4-1.57,14.56,2.32,15.91,8.66,1.35,6.34,3.03,17.68,3.74,25.22l-.97,55.49c-.97,7.5-3.05,18.79-4.62,25.07Z"/>
    <path class="cls-8" d="M553.5,719.29c-6.95,4.59-17.11,1.59-22.57-6.68l-13.54-20.5c-5.46-8.27-4.24-18.79,2.71-23.38s18.76-13.67,26.23-20.18l36.83-41.55c5.56-8.2,13.16-21.01,16.88-28.47s14.02-9.93,22.89-5.5l21.98,10.98c8.86,4.43,13.07,14.15,9.34,21.61-3.72,7.45-11.32,20.26-16.88,28.47l-57.64,65.02c-7.48,6.5-19.28,15.58-26.23,20.18Z"/>
    <path class="cls-6" d="M418.15,767.17c-7.63.07-17.14-.32-24.68-1.02-2.79-.26-5.55-.69-8.29-1.27l-40.62-8.66c-2.17-.46-4.31-1.02-6.42-1.68-8.87-2.76-20.26-6.67-26.88-9.26-7.5-2.94-10.79-12.61-7.31-21.5l8.7-22.23c3.48-8.89,12.46-13.76,19.96-10.82,5.4,2.11,14.07,4.74,21.99,6.73,5.18,1.3,10.48,2.02,15.82,2.15l19.29,5.28c13.28,3.64,27.21,4.19,40.73,1.62l25.52-4.85c5.34.13,10.67-.33,15.91-1.39,8.01-1.61,16.79-3.82,22.29-5.67,7.63-2.57,16.37,2.72,19.42,11.77l7.62,22.62c3.05,9.05-.7,18.55-8.33,21.12-6.63,2.23-17.94,5.46-26.89,7.7-2.44.61-4.91,1.09-7.4,1.44l-51.28,7.22c-3.03.43-6.09.67-9.15.7Z"/>
    <path class="cls-3" d="M292.35,714.1c-5.62,8.22-16.36,10.75-23.86,5.62-7.5-5.13-19.72-14.75-27.15-21.37,0,0-51.97-46.32-71.56-85.38-19.59-39.06-25.61-108.42-25.61-108.42-.86-9.92-1.26-25.46-.88-34.54.38-9.08,8.82-16.17,18.77-15.76l29.84,1.24c9.95.41,17.78,8.18,17.4,17.25-.38,9.08.02,24.62.88,34.54,0,0,4.08,47,18.66,76.07,14.58,29.07,49.8,60.46,49.8,60.46,7.43,6.62,19.65,16.24,27.15,21.37,7.5,5.13,9.04,16.05,3.41,24.27l-16.86,24.65Z"/>
    <path class="cls-5" d="M203.45,439.58c-1.04,5.88-8.16,9.49-15.84,8.04l-12.85-2.44c-7.67-1.45-13.1-7.45-12.06-13.33,1.04-5.88,3.6-16.84,5.68-24.36,0,0,11.24-40.52,26.21-64.28,14.97-23.77,45.88-50.35,45.88-50.35,5.92-5.09,14.65-11.97,19.4-15.29,4.75-3.32,12.06-.63,16.24,5.96l7.68,12.12c4.18,6.6,3.71,14.71-1.04,18.02-4.75,3.32-13.48,10.2-19.4,15.29,0,0-22.32,19.19-34.2,38.06-11.88,18.86-20.02,48.2-20.02,48.2-2.09,7.52-4.65,18.49-5.68,24.36Z"/>
  </g>
  <g>
    <path class="cls-1" d="M839.47,446.87c0-22.28,8.17-41.43,24.51-57.42,16.27-16,35.82-23.99,58.65-23.99s41.9,8.07,58.04,24.2c16.2,16.13,24.3,35.51,24.3,58.14s-8.14,42.08-24.4,57.93c-16.34,15.93-36.06,23.89-59.17,23.89-20.44,0-38.79-7.08-55.06-21.23-17.91-15.65-26.87-36.16-26.87-61.52ZM863.56,447.18c0,17.5,5.88,31.89,17.64,43.17,11.69,11.28,25.19,16.92,40.5,16.92,16.61,0,30.62-5.74,42.04-17.23,11.42-11.62,17.12-25.77,17.12-42.45s-5.64-31.04-16.92-42.45c-11.21-11.48-25.09-17.23-41.63-17.23s-30.39,5.74-41.73,17.23c-11.35,11.35-17.02,25.36-17.02,42.04Z"/>
    <path class="cls-1" d="M1113.84,459.28l49.01,67.47h-29.22l-45.22-64.8h-4.31v64.8h-23.89v-158.32h27.99c20.92,0,36.02,3.93,45.32,11.79,10.25,8.75,15.38,20.3,15.38,34.66,0,11.21-3.21,20.85-9.64,28.92-6.43,8.07-14.9,13.23-25.43,15.48ZM1084.1,441.12h7.59c22.63,0,33.94-8.65,33.94-25.94,0-16.2-11.01-24.3-33.02-24.3h-8.51v50.24Z"/>
    <path class="cls-1" d="M1289.67,444.3h65.42v5.23c0,11.89-1.4,22.42-4.2,31.58-2.73,8.48-7.35,16.41-13.84,23.79-14.7,16.54-33.39,24.81-56.09,24.81s-41.12-8-56.91-23.99c-15.79-16.06-23.69-35.34-23.69-57.83s8.03-42.45,24.1-58.45c16.06-16.06,35.61-24.1,58.65-24.1,12.37,0,23.92,2.53,34.66,7.59,10.25,5.06,20.34,13.26,30.25,24.61l-17.02,16.3c-12.99-17.29-28.81-25.94-47.48-25.94-16.75,0-30.8,5.78-42.14,17.33-11.35,11.35-17.02,25.57-17.02,42.66s6.32,32.16,18.97,43.58c11.83,10.6,24.64,15.89,38.45,15.89,11.76,0,22.32-3.96,31.68-11.89,9.36-8,14.59-17.57,15.69-28.71h-39.48v-22.46Z"/>
    <path class="cls-1" d="M1434.22,368.43v95.36c0,13.6,2.22,23.55,6.67,29.84,6.63,9.09,15.96,13.64,27.99,13.64s21.46-4.54,28.1-13.64c4.44-6.08,6.67-16.03,6.67-29.84v-95.36h23.89v101.92c0,16.68-5.2,30.42-15.59,41.22-11.69,12.03-26.04,18.05-43.07,18.05s-31.34-6.02-42.96-18.05c-10.39-10.8-15.59-24.54-15.59-41.22v-101.92h23.89Z"/>
    <path class="cls-1" d="M1614.56,368.43v135.86h46.55v22.46h-70.45v-158.32h23.89Z"/>
    <path class="cls-1" d="M1732.87,368.43v135.86h46.55v22.46h-70.44v-158.32h23.89Z"/>
    <path class="cls-1" d="M1812.93,446.87c0-22.28,8.17-41.43,24.51-57.42,16.27-16,35.82-23.99,58.65-23.99s41.9,8.07,58.04,24.2c16.2,16.13,24.3,35.51,24.3,58.14s-8.13,42.08-24.4,57.93c-16.34,15.93-36.06,23.89-59.16,23.89-20.44,0-38.79-7.08-55.06-21.23-17.91-15.65-26.87-36.16-26.87-61.52ZM1837.02,447.18c0,17.5,5.88,31.89,17.64,43.17,11.69,11.28,25.19,16.92,40.5,16.92,16.61,0,30.62-5.74,42.04-17.23,11.42-11.62,17.12-25.77,17.12-42.45s-5.64-31.04-16.92-42.45c-11.21-11.48-25.09-17.23-41.63-17.23s-30.39,5.74-41.73,17.23c-11.35,11.35-17.02,25.36-17.02,42.04Z"/>
  </g>
  <g>
    <path class="cls-5" d="M859.34,647.79v-64.41l43.98,46.02v-41.91h9.1v63.98l-43.98-45.9v42.23h-9.1Z"/>
    <path class="cls-5" d="M945.58,587.48v36.33c0,5.18.85,8.97,2.54,11.37,2.53,3.46,6.08,5.2,10.66,5.2s8.18-1.73,10.7-5.2c1.69-2.32,2.54-6.11,2.54-11.37v-36.33h9.1v38.83c0,6.35-1.98,11.59-5.94,15.7-4.45,4.58-9.92,6.88-16.41,6.88s-11.94-2.29-16.37-6.88c-3.96-4.11-5.94-9.35-5.94-15.7v-38.83h9.1Z"/>
    <path class="cls-5" d="M1038.46,596.03h-24.18v14.49h23.48v8.55h-23.48v20.16h24.18v8.55h-33.28v-60.31h33.28v8.55Z"/>
    <path class="cls-5" d="M1094.11,596.46l-7.38,4.38c-1.38-2.4-2.7-3.96-3.95-4.69-1.3-.83-2.98-1.25-5.04-1.25-2.53,0-4.62.72-6.29,2.15-1.67,1.41-2.5,3.18-2.5,5.31,0,2.94,2.19,5.31,6.56,7.11l6.02,2.46c4.9,1.98,8.48,4.39,10.74,7.25s3.4,6.35,3.4,10.49c0,5.55-1.85,10.13-5.55,13.75-3.72,3.65-8.35,5.47-13.87,5.47-5.23,0-9.56-1.55-12.97-4.65-3.36-3.1-5.46-7.46-6.29-13.09l9.22-2.03c.42,3.54,1.15,5.99,2.19,7.34,1.88,2.6,4.61,3.91,8.2,3.91,2.84,0,5.2-.95,7.07-2.85,1.88-1.9,2.81-4.31,2.81-7.23,0-1.17-.16-2.25-.49-3.22-.33-.98-.83-1.88-1.52-2.7-.69-.82-1.58-1.59-2.68-2.3-1.09-.72-2.4-1.4-3.91-2.05l-5.82-2.42c-8.26-3.49-12.38-8.59-12.38-15.31,0-4.53,1.73-8.32,5.2-11.37,3.46-3.07,7.77-4.61,12.93-4.61,6.95,0,12.38,3.39,16.29,10.16Z"/>
    <path class="cls-5" d="M1134.03,596.03v51.76h-9.1v-51.76h-13.87v-8.55h36.8v8.55h-13.83Z"/>
    <path class="cls-5" d="M1186.01,622.09l18.67,25.7h-11.13l-17.23-24.69h-1.64v24.69h-9.1v-60.31h10.66c7.97,0,13.72,1.5,17.27,4.49,3.91,3.33,5.86,7.73,5.86,13.2,0,4.27-1.22,7.94-3.67,11.02-2.45,3.07-5.68,5.04-9.69,5.9ZM1174.68,615.17h2.89c8.62,0,12.93-3.29,12.93-9.88,0-6.17-4.19-9.26-12.58-9.26h-3.24v19.14Z"/>
    <path class="cls-5" d="M1218.97,617.36c0-8.49,3.11-15.78,9.34-21.88,6.2-6.09,13.65-9.14,22.34-9.14s15.96,3.07,22.11,9.22c6.17,6.15,9.26,13.53,9.26,22.15s-3.1,16.03-9.3,22.07c-6.22,6.07-13.74,9.1-22.54,9.1-7.79,0-14.78-2.7-20.98-8.09-6.82-5.96-10.23-13.78-10.23-23.44ZM1228.15,617.48c0,6.67,2.24,12.15,6.72,16.45,4.45,4.3,9.6,6.45,15.43,6.45,6.33,0,11.67-2.19,16.02-6.56,4.35-4.43,6.52-9.82,6.52-16.17s-2.15-11.82-6.45-16.17c-4.27-4.38-9.56-6.56-15.86-6.56s-11.58,2.19-15.9,6.56c-4.32,4.32-6.48,9.66-6.48,16.02Z"/>
    <path class="cls-5" d="M1372.78,633.14h-25.82l-6.72,14.65h-9.8l29.84-64.1,28.79,64.1h-9.96l-6.33-14.65ZM1369.07,624.59l-8.95-20.51-9.38,20.51h18.32Z"/>
    <path class="cls-5" d="M1426.64,622.09l18.67,25.7h-11.13l-17.23-24.69h-1.64v24.69h-9.1v-60.31h10.66c7.97,0,13.72,1.5,17.27,4.49,3.91,3.33,5.86,7.73,5.86,13.2,0,4.27-1.22,7.94-3.67,11.02-2.45,3.07-5.68,5.04-9.69,5.9ZM1415.31,615.17h2.89c8.62,0,12.93-3.29,12.93-9.88,0-6.17-4.19-9.26-12.58-9.26h-3.24v19.14Z"/>
    <path class="cls-5" d="M1479.91,596.03v51.76h-9.1v-51.76h-13.87v-8.55h36.8v8.55h-13.83Z"/>
    <path class="cls-5" d="M1544.74,596.03h-24.18v14.49h23.48v8.55h-23.48v20.16h24.18v8.55h-33.28v-60.31h33.28v8.55Z"/>
    <path class="cls-5" d="M1570.3,639.68c0-2.37.87-4.42,2.6-6.16,1.74-1.73,3.81-2.6,6.22-2.6s4.49.87,6.22,2.6c1.74,1.74,2.6,3.81,2.6,6.22s-.87,4.55-2.6,6.28c-1.69,1.69-3.77,2.54-6.22,2.54s-4.59-.85-6.28-2.54c-1.69-1.69-2.54-3.81-2.54-6.35Z"/>
  </g>
</svg>